<svg xmlns="http://www.w3.org/2000/svg" viewBox="0 0 64 80" x="0px" y="0px">
  <path d="M61.909,38.583,52.058,17.089,54.447,15.9l-.894-1.79L51.224,15.27l-.315-.687a1,1,0,0,0-1.818,0l-.281.614A12.864,12.864,0,0,0,43.4,14H35V12h2V10H35.281L36,7.123a4.123,4.123,0,1,0-8,0L28.719,10H27v2h2v2H20.605a12.864,12.864,0,0,0-5.415,1.2l-.281-.614a1,1,0,0,0-1.818,0l-.315.687-2.329-1.165L9.553,15.9l2.389,1.194L2.091,38.583l0,0A.976.976,0,0,0,2,39a7.008,7.008,0,0,0,7,7H19a7.008,7.008,0,0,0,7-7,.976.976,0,0,0-.1-.414l0,0L16.022,17.011A10.878,10.878,0,0,1,20.605,16H29V52.586L25.586,56H22a5.006,5.006,0,0,0-5,5,1,1,0,0,0,1,1H46a1,1,0,0,0,1-1,5.006,5.006,0,0,0-5-5H38.414L35,52.586V16h8.4a10.878,10.878,0,0,1,4.583,1.011L38.091,38.583l0,0A.976.976,0,0,0,38,39a7.008,7.008,0,0,0,7,7H55a7.008,7.008,0,0,0,7-7,.976.976,0,0,0-.1-.414ZM19,44H9a5.008,5.008,0,0,1-4.9-4H23.9A5.008,5.008,0,0,1,19,44Zm4.442-6H4.558l9.186-20.041a.988.988,0,0,0,.512,0ZM30.327,4.816a2.188,2.188,0,0,1,3.346,0,2.111,2.111,0,0,1,.387,1.822L33.219,10H30.781L29.94,6.638A2.111,2.111,0,0,1,30.327,4.816ZM31,14V12h2v2Zm2,2V52H31V16Zm9,42a3.006,3.006,0,0,1,2.829,2H19.171A3.006,3.006,0,0,1,22,58H42Zm-6.414-2H28.414l2-2h3.172ZM49.742,17.962a.683.683,0,0,0,.506-.021L59.442,38H40.558ZM55,44H45a5.008,5.008,0,0,1-4.9-4H59.9A5.008,5.008,0,0,1,55,44Z"/>
</svg>